<svg width="49" height="48" viewBox="0 0 49 48" fill="none" xmlns="http://www.w3.org/2000/svg">
<path d="M7.60742 8.18945H41.3926C42.1776 8.18945 42.8526 8.47154 43.4404 9.05957V9.06055C44.0285 9.64841 44.3115 10.3233 44.3115 11.1084V36.8926C44.3115 37.5762 44.0954 38.1763 43.6475 38.708L43.4414 38.9316C42.8537 39.5177 42.1783 39.7998 41.3926 39.7998H7.60742C6.8258 39.7997 6.15385 39.5184 5.56836 38.9326C4.9825 38.347 4.70117 37.6744 4.70117 36.8926V11.1084C4.70117 10.3228 4.98251 9.64726 5.56836 9.05957H5.56934C6.15497 8.47166 6.82636 8.18951 7.60742 8.18945ZM7.10742 11.2139V37.3926H41.8926V13.2051L41.1182 13.7158L25.1699 24.2148C25.0334 24.2867 24.9092 24.3445 24.7969 24.3887C24.7299 24.415 24.6343 24.4355 24.5 24.4355C24.3657 24.4355 24.2701 24.415 24.2031 24.3887C24.0897 24.3441 23.9643 24.2858 23.8262 24.2129L8.10742 13.8633V11.8691L24.2266 22.4258L24.5 22.6055L24.7734 22.4268L41.4658 11.5264L42.873 10.6084H6.18164L7.10742 11.2139Z" fill="#4C3902" stroke="#4C3902"/>
</svg>
