<svg width="49" height="48" viewBox="0 0 49 48" fill="none" xmlns="http://www.w3.org/2000/svg">
<path d="M8.40527 6.18945H15.4053C15.8901 6.18948 16.27 6.34058 16.5791 6.63184C16.9055 6.93905 17.1449 7.35134 17.2832 7.89355V7.89453L18.626 13.9697C18.7007 14.4878 18.6868 14.9279 18.5986 15.2988C18.5138 15.6553 18.3406 15.9572 18.0723 16.2129L18.417 16.5752L18.0713 16.2129L18.0654 16.2188L13.0293 21.1855L12.75 21.4609L12.9502 21.7979C13.7942 23.2162 14.6902 24.543 15.6377 25.7783C16.5844 27.0127 17.6362 28.1871 18.791 29.3018V29.3027C20.0088 30.5621 21.2815 31.7031 22.6084 32.7246C23.937 33.7476 25.3247 34.6418 26.7705 35.4072L27.1006 35.582L27.3623 35.3145L32.1719 30.3789L32.1816 30.3691C32.4743 30.0514 32.7942 29.8329 33.1426 29.7021L33.293 29.6514C33.719 29.525 34.1445 29.5038 34.5762 29.5869L40.25 30.8428C40.719 30.9723 41.0955 31.1919 41.3926 31.499L41.5146 31.6367C41.8241 32.0104 41.9785 32.438 41.9785 32.9404V39.7627C41.9785 40.3619 41.7813 40.835 41.3936 41.2188C41.003 41.6053 40.5301 41.7998 39.9414 41.7998C36.1086 41.7998 32.1963 40.8787 28.2012 39.0225C24.2068 37.1667 20.4971 34.5293 17.0732 31.1055C13.6498 27.682 11.0111 23.9711 9.15137 19.9727C7.29098 15.9732 6.36816 12.0629 6.36816 8.23828C6.3682 7.71421 6.51764 7.28361 6.81445 6.92383L6.95117 6.77441C7.33789 6.38557 7.81111 6.18945 8.40527 6.18945ZM8.79883 9.12988C8.85911 10.519 9.07761 11.9829 9.45117 13.5195C9.82625 15.0623 10.4161 16.7744 11.2168 18.6533L11.5068 19.332L12.0293 18.8115L16.0674 14.7949L16.2607 14.6025L16.2041 14.3359L15.0664 9.00391L14.9814 8.6084H8.77637L8.79883 9.12988ZM39.5596 33.1621L39.1611 33.0791L34.1904 32.0508L33.918 31.9951L33.7266 32.1953L29.8008 36.3096L29.3193 36.8145L29.9521 37.1084C31.3105 37.7403 32.7864 38.2554 34.3779 38.6543C35.9708 39.0534 37.5231 39.2917 39.0342 39.3682L39.5596 39.3945V33.1621Z" fill="#4C3902" stroke="#4C3902"/>
</svg>
