<svg width="49" height="48" viewBox="0 0 49 48" fill="none" xmlns="http://www.w3.org/2000/svg">
<path d="M24.833 4.18945C29.0118 4.18945 32.6882 5.64887 35.8818 8.58691C39.0468 11.4983 40.6445 15.4056 40.6445 20.3643C40.6445 22.4108 40.193 24.4502 39.2822 26.4854C38.3601 28.5461 37.2029 30.5192 35.8115 32.4033C34.4143 34.2953 32.8961 36.0612 31.2568 37.7012C29.6053 39.3537 28.0633 40.8171 26.6318 42.0918L26.6211 42.1025C26.3855 42.3254 26.1131 42.4869 25.7988 42.5889C25.4601 42.6987 25.1331 42.751 24.8174 42.751C24.5021 42.7509 24.1821 42.6985 23.8555 42.5898C23.5523 42.489 23.29 42.3288 23.0635 42.1074L23.0547 42.0996L23.0449 42.0908C21.606 40.8165 20.0613 39.3533 18.4102 37.7012C16.7707 36.0611 15.2519 34.2955 13.8545 32.4033C12.4632 30.5194 11.3087 28.5468 10.3906 26.4863C9.48357 24.4509 9.03418 22.4113 9.03418 20.3643C9.03422 15.4054 10.63 11.4983 13.791 8.58691C16.9805 5.64909 20.6543 4.18949 24.833 4.18945ZM24.833 6.6084C21.0903 6.6084 17.9096 7.89501 15.3232 10.4668C12.7284 13.047 11.4405 16.3608 11.4404 20.3643C11.4404 23.0659 12.5721 26.0472 14.752 29.2939C16.9323 32.5414 20.1837 36.17 24.4922 40.1777L24.8291 40.4902L25.1689 40.1816C29.5785 36.1813 32.8599 32.5527 34.9932 29.2959V29.2949C37.1222 26.0442 38.2256 23.0625 38.2256 20.3643C38.2255 16.3608 36.9376 13.047 34.3428 10.4668C31.7558 7.89521 28.5755 6.60847 24.833 6.6084ZM24.8291 16.9053C25.693 16.9054 26.4144 17.2032 27.0225 17.8086C27.6297 18.4132 27.9287 19.1326 27.9287 19.9961C27.9287 20.8601 27.631 21.5799 27.0264 22.1836C26.422 22.7869 25.7021 23.0839 24.8379 23.084C24.081 23.084 23.4348 22.8575 22.8809 22.3984L22.6494 22.1875C22.0467 21.5871 21.75 20.8692 21.75 20.0049C21.75 19.2479 21.9767 18.6003 22.4365 18.043L22.6475 17.8096C23.2481 17.2033 23.9658 16.9053 24.8291 16.9053Z" fill="#4C3902" stroke="#4C3902"/>
</svg>
